<svg xmlns="http://www.w3.org/2000/svg" width="12.957" height="19.154" viewBox="0 0 12.957 19.154">
  <g id="pin_1_" data-name="pin (1)" transform="translate(-83.813 0.125)">
    <g id="Groupe_16495" data-name="Groupe 16495" transform="translate(83.813 -0.125)">
      <g id="Groupe_16494" data-name="Groupe 16494" transform="translate(0)">
        <path id="Tracé_10540" data-name="Tracé 10540" d="M90.289,0A6.352,6.352,0,0,0,85.17,10.111l4.812,7.143a.37.37,0,0,0,.614,0l4.812-7.143A6.352,6.352,0,0,0,90.289,0Zm4.517,9.68-.014.02-4.5,6.685L85.786,9.7l-.014-.021a5.611,5.611,0,1,1,9.034,0Z" transform="translate(-83.81 0.128)"/>
        <path id="Tracé_10540_-_Contour" data-name="Tracé 10540 - Contour" d="M90.292-.125a6.479,6.479,0,0,1,5.223,10.312L90.7,17.328a.5.5,0,0,1-.826,0l-4.81-7.141A6.479,6.479,0,0,1,90.292-.125Zm0,17.418a.242.242,0,0,0,.2-.107l4.815-7.147a6.223,6.223,0,1,0-10.032,0l0,0,4.812,7.143A.242.242,0,0,0,90.292,17.293Zm0-16.677a5.739,5.739,0,0,1,4.62,9.143l-.009.013-4.611,6.845L85.683,9.775l-.011-.017A5.739,5.739,0,0,1,90.292.615Zm0,15.544,4.4-6.528.017-.024a5.483,5.483,0,1,0-8.828,0l.019.028Z" transform="translate(-83.813 0.125)"/>
      </g>
    </g>
    <g id="Groupe_16497" data-name="Groupe 16497" transform="translate(87.202 3.225)">
      <g id="Groupe_16496" data-name="Groupe 16496" transform="translate(0 0)">
        <path id="Tracé_10541" data-name="Tracé 10541" d="M181.318,93.357a.37.37,0,0,0-.37.37,2.22,2.22,0,1,1-.98-1.842.37.37,0,1,0,.414-.614,2.962,2.962,0,1,0,1.305,2.456A.37.37,0,0,0,181.318,93.357Z" transform="translate(-175.637 -90.638)"/>
        <path id="Tracé_10541_-_Contour" data-name="Tracé 10541 - Contour" d="M178.729,90.641a3.075,3.075,0,0,1,1.728.528.5.5,0,1,1-.557.825,2.094,2.094,0,1,0,.923,1.736.5.5,0,0,1,1,0,3.089,3.089,0,1,1-3.089-3.089Zm1.449,1.183a.243.243,0,0,0,.136-.444,2.834,2.834,0,1,0,1.249,2.35.243.243,0,0,0-.485,0,2.348,2.348,0,1,1-1.036-1.948A.241.241,0,0,0,180.178,91.824Z" transform="translate(-175.64 -90.641)"/>
      </g>
    </g>
    <g id="Groupe_16499" data-name="Groupe 16499" transform="translate(85.345 18.033)">
      <g id="Groupe_16498" data-name="Groupe 16498" transform="translate(0 0)">
        <path id="Tracé_10542" data-name="Tracé 10542" d="M134.706,491.941h-8.885a.37.37,0,1,0,0,.74h8.885a.37.37,0,1,0,0-.74Z" transform="translate(-125.323 -491.813)"/>
        <path id="Tracé_10542_-_Contour" data-name="Tracé 10542 - Contour" d="M125.824,491.816h8.885a.5.5,0,1,1,0,1h-8.885a.5.5,0,1,1,0-1Zm8.885.74a.243.243,0,1,0,0-.485h-8.885a.243.243,0,0,0,0,.485Z" transform="translate(-125.326 -491.816)"/>
      </g>
    </g>
    <g id="Groupe_16501" data-name="Groupe 16501" transform="translate(92.082 4.599)">
      <g id="Groupe_16500" data-name="Groupe 16500" transform="translate(0 0)">
        <path id="Tracé_10543" data-name="Tracé 10543" d="M308.33,127.98h-.007a.37.37,0,0,0,0,.74h.007a.37.37,0,0,0,0-.74Z" transform="translate(-307.824 -127.852)"/>
        <path id="Tracé_10543_-_Contour" data-name="Tracé 10543 - Contour" d="M308.325,127.855h.007a.5.5,0,0,1,0,1h-.007a.5.5,0,0,1,0-1Zm.007.74a.243.243,0,0,0,0-.485h-.007a.243.243,0,1,0,0,.485Z" transform="translate(-307.827 -127.855)"/>
      </g>
    </g>
  </g>
</svg>
