<svg xmlns="http://www.w3.org/2000/svg" width="25" height="22" viewBox="0 0 25 22"><path d="M.925,1.829H3.576l3.777,13.5a.923.923,0,0,0,.894.67H19.854a.927.927,0,0,0,.848-.549l4.224-9.6a.917.917,0,0,0-.848-1.28H11.252a.914.914,0,1,0,0,1.829H22.659l-3.422,7.771H8.94L5.164.67A.923.923,0,0,0,4.27,0H.925A.922.922,0,0,0,0,.914.922.922,0,0,0,.925,1.829Z" fill="#fff"/><path d="M2,4A2,2,0,1,0,0,2,2,2,0,0,0,2,4Z" transform="translate(5 18)" fill="#fff"/><path d="M1.993,4h.147a2.073,2.073,0,1,0-.147,0Z" transform="translate(18 18)" fill="#fff"/></svg>