<svg xmlns="http://www.w3.org/2000/svg" width="18.06" height="13.643" viewBox="0 0 18.06 13.643">
  <path id="Tracé_10531" data-name="Tracé 10531" d="M148.348,83.17v-.79a1.131,1.131,0,0,0-1.129-1.129H147a6.637,6.637,0,0,0-5.58-6.468v-.8a2.105,2.105,0,0,0-4.211,0v.8a6.637,6.637,0,0,0-5.58,6.468h-.215a1.131,1.131,0,0,0-1.129,1.129v.79a2.351,2.351,0,0,0,2.348,2.348H146A2.351,2.351,0,0,0,148.348,83.17Zm-9.03-9.92a.731.731,0,0,1,.73.73V74.7h-1.461V73.98A.731.731,0,0,1,139.318,73.25Zm7.655,9.92a.974.974,0,0,1-.973.973H132.636a.974.974,0,0,1-.973-.973v-.545h8.654a.687.687,0,0,0,0-1.375h-7.309a5.258,5.258,0,0,1,5.251-5.176h2.119a5.258,5.258,0,0,1,5.251,5.176h-2.382a.687.687,0,0,0,0,1.375h3.727v.545Z" transform="translate(-130.288 -71.875)"/>
</svg>
