<svg xmlns="http://www.w3.org/2000/svg" width="17.561" height="17.561" viewBox="0 0 17.561 17.561">
  <g id="cogwheels" transform="translate(0.125 -147.941)">
    <g id="Groupe_16484" data-name="Groupe 16484" transform="translate(4.113 152.18)">
      <g id="Groupe_16483" data-name="Groupe 16483" transform="translate(0 0)">
        <path id="Tracé_10534" data-name="Tracé 10534" d="M91.082,233.714a4.543,4.543,0,0,0-4.786,6.953.428.428,0,0,0,.712-.477,3.686,3.686,0,0,1,3.065-5.732,3.709,3.709,0,0,1,.819.091.428.428,0,1,0,.19-.836Z" transform="translate(-85.531 -233.601)"/>
        <path id="Tracé_10534_-_Contour" data-name="Tracé 10534 - Contour" d="M90.073,233.476a4.69,4.69,0,0,1,1.037.116.553.553,0,1,1-.245,1.08,3.564,3.564,0,0,0-4.352,3.472,3.542,3.542,0,0,0,.6,1.977.553.553,0,1,1-.92.616,4.668,4.668,0,0,1,3.881-7.26Zm.914.959a.3.3,0,0,0,.067-.6A4.418,4.418,0,0,0,86.4,240.6a.3.3,0,0,0,.5-.338,3.811,3.811,0,0,1,3.169-5.926,3.834,3.834,0,0,1,.847.094A.305.305,0,0,0,90.987,234.435Z" transform="translate(-85.531 -233.601)"/>
      </g>
    </g>
    <g id="Groupe_16486" data-name="Groupe 16486" transform="translate(5.943 155.379)">
      <g id="Groupe_16485" data-name="Groupe 16485" transform="translate(0 0)">
        <path id="Tracé_10535" data-name="Tracé 10535" d="M130.7,300.454a.429.429,0,1,0-.836.19,3.689,3.689,0,0,1-3.594,4.5,3.667,3.667,0,0,1-2.046-.62.428.428,0,1,0-.477.712,4.543,4.543,0,0,0,7.065-3.777A4.569,4.569,0,0,0,130.7,300.454Z" transform="translate(-123.562 -300.12)"/>
        <path id="Tracé_10535_-_Contour" data-name="Tracé 10535 - Contour" d="M130.287,299.995a.551.551,0,0,1,.539.431,4.67,4.67,0,0,1-4.551,5.7,4.646,4.646,0,0,1-2.592-.786.553.553,0,1,1,.616-.92,3.561,3.561,0,0,0,5.537-2.961,3.584,3.584,0,0,0-.088-.792.554.554,0,0,1,.54-.676Zm-4.012,5.885a4.42,4.42,0,0,0,4.307-5.4.3.3,0,0,0-.363-.229.3.3,0,0,0-.229.363,3.814,3.814,0,0,1-3.716,4.657,3.792,3.792,0,0,1-2.116-.641.3.3,0,1,0-.337.5A4.4,4.4,0,0,0,126.275,305.88Z" transform="translate(-123.562 -300.12)"/>
      </g>
    </g>
    <g id="Groupe_16488" data-name="Groupe 16488" transform="translate(10.814 153.094)">
      <g id="Groupe_16487" data-name="Groupe 16487" transform="translate(0 0)">
        <path id="Tracé_10536" data-name="Tracé 10536" d="M226.218,253.4a4.577,4.577,0,0,0-.677-.677.428.428,0,0,0-.539.666,3.713,3.713,0,0,1,.55.55.429.429,0,0,0,.666-.539Z" transform="translate(-224.843 -252.623)"/>
        <path id="Tracé_10536_-_Contour" data-name="Tracé 10536 - Contour" d="M225.885,254.218a.551.551,0,0,1-.431-.205,3.589,3.589,0,0,0-.531-.531.553.553,0,1,1,.7-.86,4.7,4.7,0,0,1,.7.7.554.554,0,0,1-.43.9Zm-.613-1.47a.3.3,0,0,0-.191.539,3.838,3.838,0,0,1,.568.568.3.3,0,0,0,.472-.382,4.453,4.453,0,0,0-.658-.658A.3.3,0,0,0,225.272,252.748Z" transform="translate(-224.843 -252.623)"/>
      </g>
    </g>
    <g id="Groupe_16490" data-name="Groupe 16490" transform="translate(5.942 154.008)">
      <g id="Groupe_16489" data-name="Groupe 16489" transform="translate(0 0)">
        <path id="Tracé_10537" data-name="Tracé 10537" d="M126.259,271.614a2.714,2.714,0,1,0,2.714,2.714A2.717,2.717,0,0,0,126.259,271.614Zm0,4.571a1.857,1.857,0,1,1,1.857-1.857A1.859,1.859,0,0,1,126.259,276.185Z" transform="translate(-123.545 -271.614)"/>
        <path id="Tracé_10537_-_Contour" data-name="Tracé 10537 - Contour" d="M126.259,271.489a2.839,2.839,0,1,1-2.839,2.839A2.842,2.842,0,0,1,126.259,271.489Zm0,5.428a2.589,2.589,0,1,0-2.589-2.589A2.592,2.592,0,0,0,126.259,276.917Zm0-4.571a1.982,1.982,0,1,1-1.982,1.982A1.984,1.984,0,0,1,126.259,272.346Zm0,3.714a1.732,1.732,0,1,0-1.732-1.732A1.734,1.734,0,0,0,126.259,276.06Z" transform="translate(-123.545 -271.614)"/>
      </g>
    </g>
    <g id="Groupe_16492" data-name="Groupe 16492" transform="translate(0 148.066)">
      <g id="Groupe_16491" data-name="Groupe 16491" transform="translate(0 0)">
        <path id="Tracé_10538" data-name="Tracé 10538" d="M16.425,154.922h-.71a7.2,7.2,0,0,0-.8-1.918l.5-.5a.886.886,0,0,0,0-1.252l-1.293-1.293a.887.887,0,0,0-1.252,0l-.5.5a7.2,7.2,0,0,0-1.918-.8v-.71a.887.887,0,0,0-.886-.886H7.741a.887.887,0,0,0-.886.886v.71a7.2,7.2,0,0,0-1.918.8l-.5-.5a.887.887,0,0,0-1.252,0l-1.293,1.293a.886.886,0,0,0,0,1.252l.5.5a7.2,7.2,0,0,0-.8,1.918H.886a.886.886,0,0,0-.886.885v1.828a.887.887,0,0,0,.886.886H1.6a7.2,7.2,0,0,0,.8,1.918l-.5.5a.887.887,0,0,0,0,1.252l1.293,1.293a.887.887,0,0,0,1.252,0l.5-.5a7.2,7.2,0,0,0,1.918.8v.71a.887.887,0,0,0,.886.886H9.57a.887.887,0,0,0,.886-.886v-.71a7.2,7.2,0,0,0,1.918-.8l.5.5a.887.887,0,0,0,1.252,0l1.293-1.293a.887.887,0,0,0,0-1.252l-.5-.5a7.2,7.2,0,0,0,.8-1.918h.71a.887.887,0,0,0,.886-.886v-1.828A.887.887,0,0,0,16.425,154.922Zm0,2.742H15.374a.428.428,0,0,0-.42.343,6.362,6.362,0,0,1-.938,2.256.428.428,0,0,0,.054.54l.746.746a.029.029,0,0,1,0,.04l-1.293,1.293a.029.029,0,0,1-.04,0l-.746-.746a.428.428,0,0,0-.54-.054,6.363,6.363,0,0,1-2.256.938.428.428,0,0,0-.343.42v1.052a.029.029,0,0,1-.029.029H7.741a.029.029,0,0,1-.029-.029V163.44a.428.428,0,0,0-.343-.42,6.363,6.363,0,0,1-2.256-.938.429.429,0,0,0-.54.054l-.746.746a.029.029,0,0,1-.04,0L2.495,161.59a.029.029,0,0,1,0-.04l.746-.746a.429.429,0,0,0,.054-.54,6.362,6.362,0,0,1-.938-2.256.428.428,0,0,0-.42-.343H.886a.029.029,0,0,1-.029-.029v-1.828a.029.029,0,0,1,.029-.029H1.937a.428.428,0,0,0,.42-.343,6.363,6.363,0,0,1,.938-2.256.428.428,0,0,0-.054-.54l-.746-.746a.029.029,0,0,1,0-.04l1.293-1.293a.029.029,0,0,1,.04,0l.746.746a.428.428,0,0,0,.54.054,6.363,6.363,0,0,1,2.256-.938.428.428,0,0,0,.343-.42v-1.052a.029.029,0,0,1,.029-.029H9.57a.029.029,0,0,1,.029.029V150a.428.428,0,0,0,.343.42,6.363,6.363,0,0,1,2.256.938.428.428,0,0,0,.54-.054l.746-.746a.029.029,0,0,1,.04,0l1.293,1.293a.029.029,0,0,1,0,.04l-.746.746a.429.429,0,0,0-.054.54,6.363,6.363,0,0,1,.938,2.256.428.428,0,0,0,.42.343h1.052a.029.029,0,0,1,.029.029v1.828h0A.028.028,0,0,1,16.425,157.664Z" transform="translate(0 -148.066)"/>
        <path id="Tracé_10538_-_Contour" data-name="Tracé 10538 - Contour" d="M7.741,147.941H9.569a1.012,1.012,0,0,1,1.011,1.011v.614a7.34,7.34,0,0,1,1.773.737l.436-.436a1.012,1.012,0,0,1,1.429,0l1.293,1.293a1.011,1.011,0,0,1,0,1.429l-.436.436a7.342,7.342,0,0,1,.737,1.773h.614a1.012,1.012,0,0,1,1.011,1.011v1.828a1.012,1.012,0,0,1-1.011,1.011h-.614a7.341,7.341,0,0,1-.737,1.773l.436.436a1.012,1.012,0,0,1,0,1.429l-1.293,1.293a1.012,1.012,0,0,1-1.429,0l-.436-.436a7.342,7.342,0,0,1-1.773.737v.614A1.012,1.012,0,0,1,9.57,165.5H7.741a1.012,1.012,0,0,1-1.011-1.011v-.614a7.342,7.342,0,0,1-1.773-.737l-.436.436a1.012,1.012,0,0,1-1.429,0L1.8,162.284a1.012,1.012,0,0,1,0-1.429l.436-.436a7.342,7.342,0,0,1-.737-1.773H.886a1.012,1.012,0,0,1-1.011-1.011v-1.828a1.012,1.012,0,0,1,1.01-1.01H1.5a7.342,7.342,0,0,1,.737-1.773l-.436-.436a1.011,1.011,0,0,1,0-1.429l1.293-1.293a1.012,1.012,0,0,1,1.429,0l.436.436a7.342,7.342,0,0,1,1.773-.737v-.614A1.012,1.012,0,0,1,7.741,147.941Zm4.651,2.675-.084-.05a7.092,7.092,0,0,0-1.885-.783l-.094-.024v-.807a.761.761,0,0,0-.761-.761H7.741a.761.761,0,0,0-.761.761v.807l-.094.024A7.092,7.092,0,0,0,5,150.566l-.084.05-.573-.573a.762.762,0,0,0-1.076,0l-1.293,1.293a.761.761,0,0,0,0,1.076l.573.573-.05.084a7.093,7.093,0,0,0-.783,1.885l-.024.094H.886a.761.761,0,0,0-.761.76v1.828a.761.761,0,0,0,.761.761h.807l.024.094a7.093,7.093,0,0,0,.783,1.885l.05.084-.573.573a.761.761,0,0,0,0,1.076L3.27,163.4a.762.762,0,0,0,1.076,0l.573-.573.084.05a7.093,7.093,0,0,0,1.885.783l.094.024v.807a.761.761,0,0,0,.761.761H9.57a.761.761,0,0,0,.761-.761v-.807l.094-.024a7.092,7.092,0,0,0,1.885-.783l.084-.05.573.573a.762.762,0,0,0,1.076,0l1.293-1.293a.762.762,0,0,0,0-1.076l-.573-.573.05-.084a7.091,7.091,0,0,0,.783-1.885l.024-.094h.807a.761.761,0,0,0,.761-.761v-1.828a.762.762,0,0,0-.761-.761h-.807l-.024-.094a7.092,7.092,0,0,0-.783-1.885l-.05-.084.573-.573a.761.761,0,0,0,0-1.076l-1.293-1.293a.762.762,0,0,0-1.076,0ZM7.741,148.8H9.57a.154.154,0,0,1,.154.154V150a.3.3,0,0,0,.243.3,6.487,6.487,0,0,1,2.3.956.3.3,0,0,0,.382-.038l.746-.746a.157.157,0,0,1,.217,0l1.293,1.293a.154.154,0,0,1,0,.217l-.746.746a.3.3,0,0,0-.038.382,6.488,6.488,0,0,1,.956,2.3.3.3,0,0,0,.3.243h1.052a.154.154,0,0,1,.154.154v1.828a.153.153,0,0,1-.153.154H15.374a.3.3,0,0,0-.3.243,6.487,6.487,0,0,1-.956,2.3.3.3,0,0,0,.038.382l.746.746a.154.154,0,0,1,0,.217l-1.293,1.293a.157.157,0,0,1-.217,0l-.746-.746a.3.3,0,0,0-.382-.038,6.488,6.488,0,0,1-2.3.956.3.3,0,0,0-.243.3v1.052a.154.154,0,0,1-.154.154H7.741a.154.154,0,0,1-.154-.154V163.44a.3.3,0,0,0-.243-.3,6.487,6.487,0,0,1-2.3-.956.3.3,0,0,0-.382.038l-.746.746a.157.157,0,0,1-.217,0l-1.293-1.293a.154.154,0,0,1,0-.217l.746-.746a.3.3,0,0,0,.038-.382,6.487,6.487,0,0,1-.956-2.3.3.3,0,0,0-.3-.243H.886a.154.154,0,0,1-.154-.154v-1.828a.154.154,0,0,1,.154-.154H1.937a.3.3,0,0,0,.3-.243,6.488,6.488,0,0,1,.956-2.3.3.3,0,0,0-.038-.382l-.746-.746a.154.154,0,0,1,0-.217L3.7,150.473a.157.157,0,0,1,.217,0l.746.746a.3.3,0,0,0,.382.038,6.487,6.487,0,0,1,2.3-.956.3.3,0,0,0,.243-.3v-1.052A.154.154,0,0,1,7.741,148.8Zm1.732.25H7.838V150a.555.555,0,0,1-.443.542,6.239,6.239,0,0,0-2.212.919.553.553,0,0,1-.7-.07l-.678-.678-1.156,1.156.678.678a.555.555,0,0,1,.07.7,6.239,6.239,0,0,0-.919,2.212.555.555,0,0,1-.542.443H.982v1.635h.955a.555.555,0,0,1,.542.443,6.238,6.238,0,0,0,.919,2.212.555.555,0,0,1-.07.7l-.678.678,1.156,1.156.678-.678a.554.554,0,0,1,.7-.07,6.238,6.238,0,0,0,2.212.919.555.555,0,0,1,.443.542v.955H9.473v-.955a.555.555,0,0,1,.443-.542,6.239,6.239,0,0,0,2.212-.919.553.553,0,0,1,.7.07l.678.678,1.156-1.156-.678-.678a.555.555,0,0,1-.07-.7,6.238,6.238,0,0,0,.919-2.212.555.555,0,0,1,.542-.443h.955V155.9h-.955a.555.555,0,0,1-.542-.443,6.239,6.239,0,0,0-.919-2.212.555.555,0,0,1,.07-.7l.678-.678L13.5,150.718l-.678.678a.553.553,0,0,1-.7.07,6.238,6.238,0,0,0-2.212-.919A.555.555,0,0,1,9.473,150Z" transform="translate(0 -148.066)"/>
      </g>
    </g>
  </g>
</svg>
