<svg xmlns="http://www.w3.org/2000/svg" width="16.686" height="11.987" viewBox="0 0 16.686 11.987">
  <g id="Layer_15" data-name="Layer 15" transform="translate(-2 -6)">
    <path id="Tracé_10546" data-name="Tracé 10546" d="M21.438,13.277H14.6a.6.6,0,1,0,0,1.2h6.88l-1.552,1.552a.6.6,0,1,0,.845.845l2.547-2.547a.6.6,0,0,0,0-.845l-2.553-2.6a.6.6,0,0,0-.857.839Z" transform="translate(-4.808 -1.883)"/>
    <path id="Tracé_10547" data-name="Tracé 10547" d="M4.751,17.987h5.64a.6.6,0,1,0,0-1.2H4.751A1.552,1.552,0,0,1,3.2,15.236V8.751A1.552,1.552,0,0,1,4.751,7.2h5.64a.6.6,0,0,0,0-1.2H4.751A2.751,2.751,0,0,0,2,8.751v6.485a2.751,2.751,0,0,0,2.751,2.751Z" transform="translate(0)"/>
  </g>
</svg>
