<svg xmlns="http://www.w3.org/2000/svg" width="17.227" height="15.118" viewBox="0 0 17.227 15.118">
  <path id="XMLID_25_" d="M11.129,32.754a.527.527,0,0,1-.151.73,2.06,2.06,0,0,0-.338.279.527.527,0,0,1-.753-.739A3.118,3.118,0,0,1,10.4,32.6.528.528,0,0,1,11.129,32.754ZM15.716,39l-5.233,5.333a2.611,2.611,0,0,1-3.74,0L1.511,39a5.345,5.345,0,0,1,0-7.448,5.119,5.119,0,0,1,7.1-.224,5.119,5.119,0,0,1,7.1.224A5.345,5.345,0,0,1,15.716,39Zm-.753-6.709a4.065,4.065,0,0,0-5.829,0c-.039.04-.075.089-.124.133a.542.542,0,0,1-.791,0c-.046-.048-.085-.093-.124-.133a4.065,4.065,0,0,0-5.83,0,4.285,4.285,0,0,0,0,5.971L7.5,43.591a1.556,1.556,0,0,0,2.233,0l5.233-5.333h0A4.285,4.285,0,0,0,14.963,32.286Zm-.753.739a3.04,3.04,0,0,0-1.1-.721.527.527,0,1,0-.375.986,1.993,1.993,0,0,1,.718.473,2.165,2.165,0,0,1,0,3.017l-1.851,1.887a.527.527,0,0,0,.753.739l1.851-1.887A3.225,3.225,0,0,0,14.209,33.025Z" transform="translate(0 -30)"/>
</svg>
