<svg xmlns="http://www.w3.org/2000/svg" width="19.256" height="22.417" viewBox="0 0 19.256 22.417"><g transform="translate(0.249 0.186)"><path d="M18.18,10.858a.53.53,0,0,0-.53.53v9.445H11.962V14.9a.53.53,0,0,0-.53-.53H7.279a.53.53,0,0,0-.53.53v4.7a.53.53,0,1,0,1.06,0V15.434H10.9v5.4H1.06V7.857L9.355,1.21l8.494,6.807a.53.53,0,0,0,.663-.827L9.687.116a.53.53,0,0,0-.663,0L.2,7.189A.53.53,0,0,0,0,7.6v13.76a.53.53,0,0,0,.53.53H18.18a.53.53,0,0,0,.53-.53V11.388A.53.53,0,0,0,18.18,10.858Z" transform="translate(0.001 0.088)" stroke="#000" stroke-miterlimit="10" stroke-width="0.5"/></g></svg>