<svg xmlns="http://www.w3.org/2000/svg" width="16.585" height="18.508" viewBox="0 0 16.585 18.508">
  <g id="Icon_feather-user" data-name="Icon feather-user" transform="translate(-5.4 -3.9)">
    <path id="Tracé_10544" data-name="Tracé 10544" d="M21.385,28.869a.6.6,0,0,1-.6-.6V26.346A3.25,3.25,0,0,0,17.539,23.1H9.846A3.246,3.246,0,0,0,6.6,26.346v1.923a.6.6,0,0,1-1.2,0V26.346A4.446,4.446,0,0,1,9.846,21.9h7.693a4.451,4.451,0,0,1,4.446,4.446v1.923A.6.6,0,0,1,21.385,28.869Z" transform="translate(0 -6.461)"/>
    <path id="Tracé_10545" data-name="Tracé 10545" d="M15.846,3.9A4.446,4.446,0,1,1,11.4,8.346,4.451,4.451,0,0,1,15.846,3.9Zm0,7.693A3.246,3.246,0,1,0,12.6,8.346,3.25,3.25,0,0,0,15.846,11.593Z" transform="translate(-2.154)"/>
  </g>
</svg>
