<svg xmlns="http://www.w3.org/2000/svg" width="10.437" height="15.529" viewBox="0 0 10.437 15.529">
  <g id="pin_1_" data-name="pin (1)" transform="translate(-83.938)">
    <g id="Groupe_16495" data-name="Groupe 16495" transform="translate(83.938)">
      <g id="Groupe_16494" data-name="Groupe 16494" transform="translate(0)">
        <path id="Tracé_10540" data-name="Tracé 10540" d="M89.157,0A5.219,5.219,0,0,0,84.95,8.308L88.9,14.178a.3.3,0,0,0,.5,0l3.954-5.869A5.219,5.219,0,0,0,89.157,0Zm3.711,7.954-.011.016-3.7,5.493-3.7-5.492-.012-.017a4.61,4.61,0,1,1,7.423,0Z" transform="translate(-83.938)"/>
      </g>
    </g>
    <g id="Groupe_16497" data-name="Groupe 16497" transform="translate(86.723 2.753)">
      <g id="Groupe_16496" data-name="Groupe 16496" transform="translate(0)">
        <path id="Tracé_10541" data-name="Tracé 10541" d="M180.328,92.9a.3.3,0,0,0-.3.3,1.825,1.825,0,1,1-.8-1.514.3.3,0,1,0,.341-.5,2.434,2.434,0,1,0,1.073,2.018A.3.3,0,0,0,180.328,92.9Z" transform="translate(-175.765 -90.766)"/>
      </g>
    </g>
    <g id="Groupe_16499" data-name="Groupe 16499" transform="translate(85.197 14.92)">
      <g id="Groupe_16498" data-name="Groupe 16498" transform="translate(0)">
        <path id="Tracé_10542" data-name="Tracé 10542" d="M133.056,491.941h-7.3a.3.3,0,0,0,0,.608h7.3a.3.3,0,1,0,0-.608Z" transform="translate(-125.451 -491.941)"/>
      </g>
    </g>
    <g id="Groupe_16501" data-name="Groupe 16501" transform="translate(90.732 3.882)">
      <g id="Groupe_16500" data-name="Groupe 16500" transform="translate(0)">
        <path id="Tracé_10543" data-name="Tracé 10543" d="M308.262,127.98h-.006a.3.3,0,0,0,0,.608h.006a.3.3,0,0,0,0-.608Z" transform="translate(-307.952 -127.98)"/>
      </g>
    </g>
  </g>
</svg>
