<svg xmlns="http://www.w3.org/2000/svg" width="20.227" height="17.75" viewBox="0 0 20.227 17.75">
  <path id="XMLID_25_" d="M13.067,33.234a.619.619,0,0,1-.177.858,2.419,2.419,0,0,0-.4.327.619.619,0,0,1-.885-.867,3.661,3.661,0,0,1,.6-.5A.62.62,0,0,1,13.067,33.234Zm5.386,7.329-6.144,6.262a3.066,3.066,0,0,1-4.391,0L1.774,40.562a6.275,6.275,0,0,1,0-8.745,6.011,6.011,0,0,1,8.339-.263,6.011,6.011,0,0,1,8.339.263A6.275,6.275,0,0,1,18.453,40.562Zm-.884-7.878a4.773,4.773,0,0,0-6.845,0c-.046.047-.088.1-.146.156a.636.636,0,0,1-.928,0c-.054-.056-.1-.109-.146-.156a4.773,4.773,0,0,0-6.845,0,5.031,5.031,0,0,0,0,7.011L8.8,45.957a1.827,1.827,0,0,0,2.622,0L17.568,39.7h0A5.031,5.031,0,0,0,17.568,32.684Zm-.885.867a3.57,3.57,0,0,0-1.288-.846.619.619,0,1,0-.44,1.158,2.34,2.34,0,0,1,.844.556,2.542,2.542,0,0,1,0,3.542l-2.173,2.215a.619.619,0,0,0,.884.867l2.173-2.215A3.786,3.786,0,0,0,16.684,33.551Z" transform="translate(0 -30)"/>
</svg>
