<svg xmlns="http://www.w3.org/2000/svg" width="31.715" height="31.838" viewBox="0 0 31.715 31.838"><g transform="translate(0)"><path d="M31.639,285.624l-5.6-13.058a.933.933,0,0,0-.857-.565H6.53a.932.932,0,0,0-.857.565l-5.6,13.058a.933.933,0,0,0,.857,1.3H30.782A.933.933,0,0,0,31.639,285.624Zm0,0" transform="translate(0 -255.086)" fill="#e0f4fe"/><path d="M269.936,286.924H255.012V272h9.327a.933.933,0,0,1,.857.565l5.6,13.058A.933.933,0,0,1,269.936,286.924Zm0,0" transform="translate(-239.154 -255.086)" fill="#bcdcfe"/><path d="M39.368,387.738l-.78,1.509-.834,1.946H49.012l1.207-.145-5.847-5.876Zm0,0" transform="translate(-35.406 -361.221)" fill="#159be1"/><path d="M162.858,309.43l-.3-.977L159.8,302h-3.337l-2.259.041-10.008,5.131,5.847,5.876,1.43.145h1.941l2.232-.062Zm0,0" transform="translate(-135.225 -283.221)" fill="#5dc983"/><g transform="translate(3.962 18.779)"><path d="M266.787,309.43l-7.217,3.7-2.232.062H255.4l-.386-.039v-9.515l3.117-1.6,1.509-.027.75-.014h3.337l2.766,6.453Zm0,0" transform="translate(-243.116 -302)" fill="#0eab61"/><path d="M66.891,302l-2.808,6.552-.375,1.186,15.012-7.7L76.884,302Zm0,0" transform="translate(-63.707 -302)" fill="#0eab61"/><path d="M258.128,302.041l-3.117,1.6V302h1.281Zm0,0" transform="translate(-243.116 -302)" fill="#0eab61"/></g><path d="M335.541,421.492l-7.217,3.7,1.824.062h7.126l-1.294-3.02Zm0,0" transform="translate(-307.908 -395.282)" fill="#159be1"/><path d="M58.585,307.478l5.715,5.715H61.662l-4.822-4.822-5.6,2.864,1.15-2.684L65.194,302h4.094Zm0,0" transform="translate(-48.056 -283.221)" fill="#fed941"/><path d="M255.012,475.789l.386.386h-.386Zm0,0" transform="translate(-239.154 -446.203)" fill="#feb99e"/><path d="M260.387,302l-1.117.572-4.258,2.179v-2.1l1.281-.655Zm0,0" transform="translate(-239.154 -283.221)" fill="#fcbe29"/><path d="M302.322,407.5l-5.832,3.02h-4.056l9.151-4.74Zm0,0" transform="translate(-274.249 -380.548)" fill="#fcbe29"/><path d="M128.406,0c-4.56,0-8.395,3.342-8.395,9.141,0,5.878,7.377,14.429,7.691,14.79a.933.933,0,0,0,1.408,0c.314-.361,7.691-8.912,7.691-14.79C136.8,3.4,132.9,0,128.406,0Zm0,11.193a2.8,2.8,0,1,1,2.8-2.8A2.8,2.8,0,0,1,128.406,11.193Zm0,0" transform="translate(-112.549)" fill="#ee3616"/><path d="M255.012,0V5.6a2.8,2.8,0,1,1,0,5.6V24.251a.928.928,0,0,0,.7-.321c2.751-3.163,7.691-10.051,7.691-14.79C263.406,3.4,259.5,0,255.012,0Zm0,0" transform="translate(-239.154)" fill="#cb0010"/></g></svg>