<svg xmlns="http://www.w3.org/2000/svg" width="43.973" height="54.998" viewBox="0 0 43.973 54.998"><g transform="translate(-6.761 -3.93)"><path d="M21.229,35.621c4.275,0,6.612-3.024,6.612-7.285H14.6C14.6,32.6,16.941,35.621,21.229,35.621Z" transform="translate(7.49 23.307)" fill="#afafaf"/><path d="M50.177,44.66c-2.117-2.79-6.282-4.426-6.282-16.921,0-12.825-5.663-17.98-10.942-19.217-.495-.124-.852-.289-.852-.811v-.4a3.354,3.354,0,1,0-6.708,0v.4c0,.509-.357.687-.852.811C19.248,9.773,13.6,14.914,13.6,27.739c0,12.5-4.165,14.117-6.282,16.921A2.729,2.729,0,0,0,9.5,49.031H48A2.729,2.729,0,0,0,50.177,44.66Z" transform="translate(0 0)" fill="#afafaf"/></g></svg>