<svg xmlns="http://www.w3.org/2000/svg" width="19.523" height="24.419" viewBox="0 0 19.523 24.419"><g transform="translate(-6.761 -3.93)"><path d="M17.546,31.571c1.9,0,2.936-1.343,2.936-3.235H14.6C14.6,30.228,15.641,31.571,17.546,31.571Z" transform="translate(-1.035 -3.222)" fill="#4b9d22"/><path d="M26.037,22.014c-.94-1.239-2.789-1.965-2.789-7.513,0-5.694-2.514-7.983-4.858-8.532-.22-.055-.378-.128-.378-.36V5.432a1.489,1.489,0,1,0-2.978,0v.177c0,.226-.159.305-.378.36C12.305,6.524,9.8,8.807,9.8,14.5c0,5.548-1.849,6.268-2.789,7.513a1.211,1.211,0,0,0,.97,1.941H25.073A1.212,1.212,0,0,0,26.037,22.014Z" fill="#4b9d22"/></g></svg>