<svg xmlns="http://www.w3.org/2000/svg" width="22.392" height="16.916" viewBox="0 0 22.392 16.916"><path d="M152.68,85.88V84.9a1.4,1.4,0,0,0-1.4-1.4h-.267a8.229,8.229,0,0,0-6.919-8.019v-1a2.61,2.61,0,0,0-5.221,0v1a8.229,8.229,0,0,0-6.919,8.019h-.267a1.4,1.4,0,0,0-1.4,1.4v.98a2.915,2.915,0,0,0,2.911,2.911h16.57A2.915,2.915,0,0,0,152.68,85.88Zm-11.2-12.3a.907.907,0,0,1,.906.906v.892h-1.811v-.892A.907.907,0,0,1,141.484,73.58Zm9.491,12.3a1.208,1.208,0,0,1-1.207,1.207H133.2a1.208,1.208,0,0,1-1.207-1.207V85.2h10.73a.852.852,0,0,0,0-1.7H133.66a6.519,6.519,0,0,1,6.51-6.418H142.8a6.519,6.519,0,0,1,6.51,6.418h-2.954a.852.852,0,0,0,0,1.7h4.621v.675Z" transform="translate(-130.288 -71.875)" fill="#fff"/></svg>