<svg xmlns="http://www.w3.org/2000/svg" width="16.39" height="12.292" viewBox="0 0 16.39 12.292">
  <path id="Icon_metro-credit-card" data-name="Icon metro-credit-card" d="M17.424,5.784H4.107A1.541,1.541,0,0,0,2.571,7.321V16.54a1.541,1.541,0,0,0,1.537,1.537H17.424a1.541,1.541,0,0,0,1.537-1.537V7.321a1.541,1.541,0,0,0-1.537-1.537ZM4.107,6.808H17.424a.519.519,0,0,1,.512.512V8.857H3.6V7.321a.519.519,0,0,1,.512-.512ZM17.424,17.052H4.107A.519.519,0,0,1,3.6,16.54V11.93H17.936v4.61A.519.519,0,0,1,17.424,17.052Zm-12.8-3.073H5.644v2.049H4.619Zm2.049,0H7.693v2.049H6.668Zm2.049,0H9.741v2.049H8.717Z" transform="translate(-2.571 -5.784)"/>
</svg>
