<svg xmlns="http://www.w3.org/2000/svg" width="14.669" height="22" viewBox="0 0 14.669 22"><g transform="translate(-0.814)" opacity="0.8"><path d="M4.074,11.408A4.079,4.079,0,0,1,0,7.333V4.074A4.079,4.079,0,0,1,4.074,0H5.7A4.079,4.079,0,0,1,9.778,4.074V7.333A4.079,4.079,0,0,1,5.7,11.408Z" transform="translate(3.259)" fill="#767676"/><path d="M10.785,0h-6.9A3.986,3.986,0,0,0,0,4.074V8.148a.815.815,0,0,0,1.63,0V4.074A2.357,2.357,0,0,1,3.884,1.63h6.9a2.357,2.357,0,0,1,2.253,2.444V7.333h-3.02a.815.815,0,0,0,0,1.63h3.835a.815.815,0,0,0,.815-.815V4.074A3.986,3.986,0,0,0,10.785,0Z" transform="translate(0.814 13.037)" fill="#767676"/></g></svg>