<svg xmlns="http://www.w3.org/2000/svg" width="17.396" height="17.396" viewBox="0 0 17.396 17.396"><g transform="translate(0)"><rect width="17.396" height="1.329" rx="0.665" transform="translate(0 1.825)" fill="#fff"/><circle cx="2.488" cy="2.488" r="2.488" transform="translate(0.878)" fill="#fff"/><circle cx="1.17" cy="1.17" r="1.17" transform="translate(2.196 1.318)" fill="#4b9d22"/><rect width="17.396" height="1.329" rx="0.665" transform="translate(17.396 9.366) rotate(180)" fill="#fff"/><path d="M2.488,0A2.488,2.488,0,1,1,0,2.488,2.488,2.488,0,0,1,2.488,0Z" transform="translate(9.339 6.215)" fill="#fff"/><path d="M1.17,0A1.17,1.17,0,1,1,0,1.17,1.17,1.17,0,0,1,1.17,0Z" transform="translate(10.576 7.533)" fill="#4b9d22"/><path d="M.665,0H16.731a.665.665,0,1,1,0,1.329H.665A.665.665,0,0,1,.665,0Z" transform="translate(0 14.244)" fill="#fff"/><circle cx="2.488" cy="2.488" r="2.488" transform="translate(4.116 12.419)" fill="#fff"/><circle cx="1.17" cy="1.17" r="1.17" transform="translate(5.488 13.737)" fill="#4b9d22"/></g></svg>