<svg xmlns="http://www.w3.org/2000/svg" width="11.083" height="10.5" viewBox="0 0 11.083 10.5"><g transform="translate(-129.917 -173.25)"><g transform="translate(129.917 173.25)"><path d="M5.958.257,7.309,2.973a.464.464,0,0,0,.348.255l3.025.437a.466.466,0,0,1,.308.179.449.449,0,0,1-.049.6L8.75,6.568a.443.443,0,0,0-.132.406l.528,2.991a.459.459,0,0,1-.38.52.5.5,0,0,1-.3-.047l-2.7-1.41a.454.454,0,0,0-.433,0l-2.713,1.42a.473.473,0,0,1-.628-.192.462.462,0,0,1-.048-.291l.528-2.991a.459.459,0,0,0-.132-.406L.135,4.445a.458.458,0,0,1,0-.65A.531.531,0,0,1,.4,3.665l3.025-.437a.474.474,0,0,0,.348-.255L5.124.257A.457.457,0,0,1,5.391.024a.465.465,0,0,1,.356.025A.477.477,0,0,1,5.958.257Z" transform="translate(0 0)" fill="#f0f0f0"/></g></g></svg>