<svg id="Groupe_16555" data-name="Groupe 16555" xmlns="http://www.w3.org/2000/svg" width="13.421" height="13.421" viewBox="0 0 13.421 13.421">
  <g id="Iconly_Light_Star" data-name="Iconly/Light/Star" transform="translate(0 0)">
    <g id="Star">
      <path id="Star-2" data-name="Star" d="M7.214.329,8.851,3.8a.565.565,0,0,0,.422.326l3.663.559a.559.559,0,0,1,.373.229.6.6,0,0,1,.106.436.587.587,0,0,1-.166.332L10.6,8.395a.586.586,0,0,0-.16.519l.639,3.823a.566.566,0,0,1-.825.605l-3.266-1.8a.525.525,0,0,0-.524,0L3.175,13.356a.558.558,0,0,1-.761-.246.62.62,0,0,1-.058-.372L3,8.914a.607.607,0,0,0-.16-.519L.164,5.682a.609.609,0,0,1,0-.831.63.63,0,0,1,.32-.166l3.663-.559A.578.578,0,0,0,4.568,3.8L6.2.329a.564.564,0,0,1,.323-.3.537.537,0,0,1,.431.032A.594.594,0,0,1,7.214.329Z" transform="translate(0 0)" fill="#ffc529"/>
    </g>
  </g>
</svg>
