<svg xmlns="http://www.w3.org/2000/svg" width="42" height="12.88" viewBox="0 0 42 12.88"><path d="M831.529,5628.846a8.977,8.977,0,0,0-3.045-.525c-3.36,0-5.731,1.7-5.749,4.13-.021,1.785,1.687,2.782,2.977,3.377,1.325.612,1.767,1,1.764,1.558-.009.84-1.059,1.208-2.034,1.208a7.372,7.372,0,0,1-3.2-.648l-.418-.192-.474,2.783a11.026,11.026,0,0,0,3.806.665c3.572,0,5.906-1.68,5.934-4.27.028-1.417-.893-2.5-2.837-3.4-1.18-.577-1.914-.962-1.914-1.54,0-.524.628-1.085,1.941-1.085a6.043,6.043,0,0,1,2.546.49l.315.14.474-2.713Zm8.72-.3h-2.625a1.705,1.705,0,0,0-1.787,1.032l-5.049,11.446h3.572l.714-1.874h4.357c.107.438.42,1.874.42,1.874H843Zm-22.344-.1h3.4l-2.126,12.477h-3.4l2.128-12.477Zm-8.643,6.876.354,1.733,3.327-8.5h3.6l-5.357,12.459h-3.594l-2.94-10.552a.665.665,0,0,0-.315-.4,14.25,14.25,0,0,0-3.339-1.243l.044-.262h5.479a1.414,1.414,0,0,1,1.545,1.049l1.193,5.741Zm26.789,1.278,1.356-3.482c-.018.035.28-.734.452-1.19l.233,1.068.786,3.6Z" transform="translate(-801 -5628.32)" fill="#2a2a6c"/></svg>