<svg xmlns="http://www.w3.org/2000/svg" width="16.914" height="20.803" viewBox="0 0 16.914 20.803">
  <g id="Groupe_16401" data-name="Groupe 16401" transform="translate(-322.586 -108.028)">
    <path id="Union_99" data-name="Union 99" d="M8.2,4.973H1.287a1.287,1.287,0,1,1,0-2.574H8.122a3.437,3.437,0,0,1,6.553,0h.952a1.287,1.287,0,0,1,0,2.574H14.594a3.429,3.429,0,0,1-6.394,0ZM9.648,3.6a1.73,1.73,0,1,0,3.458,0,1.73,1.73,0,1,0-3.458,0Z" transform="translate(322.586 121.67)" fill="#707070"/>
    <path id="Union_101" data-name="Union 101" d="M8.2,4.973H1.287a1.287,1.287,0,1,1,0-2.574H8.122a3.437,3.437,0,0,1,6.553,0h.952a1.287,1.287,0,0,1,0,2.574H14.594a3.429,3.429,0,0,1-6.394,0ZM9.648,3.6a1.73,1.73,0,1,0,3.458,0,1.73,1.73,0,1,0-3.458,0Z" transform="translate(339.5 122.351) rotate(180)" fill="#707070"/>
    <path id="Union_103" data-name="Union 103" d="M8.2,4.973H1.287a1.287,1.287,0,1,1,0-2.574H8.122a3.437,3.437,0,0,1,6.553,0h.952a1.287,1.287,0,0,1,0,2.574H14.594a3.429,3.429,0,0,1-6.394,0ZM9.648,3.6a1.73,1.73,0,1,0,3.458,0,1.73,1.73,0,1,0-3.458,0Z" transform="translate(322.586 108.028)" fill="#707070"/>
  </g>
</svg>
