<svg xmlns="http://www.w3.org/2000/svg" width="20" height="20.156" viewBox="0 0 20 20.156">
  <g id="Groupe_16516" data-name="Groupe 16516" transform="translate(-33 -335.844)">
    <path id="Rectangle_17549" data-name="Rectangle 17549" d="M5,1.5A3.5,3.5,0,0,0,1.5,5v7A3.5,3.5,0,0,0,5,15.5H15A3.5,3.5,0,0,0,18.5,12V5A3.5,3.5,0,0,0,15,1.5H5M5,0H15a5,5,0,0,1,5,5v7a5,5,0,0,1-5,5H5a5,5,0,0,1-5-5V5A5,5,0,0,1,5,0Z" transform="translate(33 339)"/>
    <path id="Ellipse_884" data-name="Ellipse 884" d="M2,1A1,1,0,1,0,3,2,1,1,0,0,0,2,1M2,0A2,2,0,1,1,0,2,2,2,0,0,1,2,0Z" transform="translate(46 345)"/>
    <path id="Tracé_68826" data-name="Tracé 68826" d="M3971.589,3418.133a.75.75,0,0,1-.75-.75c0-3.8-1.214-5.4-1.819-5.593a26.845,26.845,0,0,0-5.344,1.1c-2.74.723-5.6,1.6-7.277,2.224a.75.75,0,0,1-.525-1.4c1.768-.661,4.745-1.569,7.583-2.312,5.03-1.318,5.7-1.128,5.953-1.058a3.584,3.584,0,0,1,2.051,2.125,12.11,12.11,0,0,1,.879,4.917A.75.75,0,0,1,3971.589,3418.133Z" transform="translate(-3919.48 -3074.445)"/>
  </g>
</svg>
