<svg xmlns="http://www.w3.org/2000/svg" width="20.953" height="20.953" viewBox="0 0 20.953 20.953">
  <path id="Icon_awesome-facebook-square" data-name="Icon awesome-facebook-square" d="M18.708,2.25H2.245A2.245,2.245,0,0,0,0,4.495V20.958A2.245,2.245,0,0,0,2.245,23.2H8.664V16.079H5.718V12.726H8.664V10.171c0-2.907,1.73-4.512,4.381-4.512a17.85,17.85,0,0,1,2.6.226V8.738H14.179a1.677,1.677,0,0,0-1.89,1.811v2.177h3.217l-.514,3.353h-2.7V23.2h6.419a2.245,2.245,0,0,0,2.245-2.245V4.495A2.245,2.245,0,0,0,18.708,2.25Z" transform="translate(0 -2.25)" fill="#3b5998"/>
</svg>
