<svg xmlns="http://www.w3.org/2000/svg" xmlns:xlink="http://www.w3.org/1999/xlink" width="20.269" height="20.682" viewBox="0 0 20.269 20.682">
  <defs>
    <clipPath id="clip-path">
      <path id="Tracé_78" data-name="Tracé 78" d="M269.488,225.75a11.875,11.875,0,0,0-.188-2.115h-9.74v4h5.565a4.757,4.757,0,0,1-2.064,3.121v2.595H266.4a10.085,10.085,0,0,0,3.084-7.6Zm0,0" transform="translate(-259.56 -223.635)" fill="none" clip-rule="evenodd"/>
    </clipPath>
    <clipPath id="clip-path-2">
      <path id="Tracé_79" data-name="Tracé 79" d="M109.724,298.2a9.873,9.873,0,0,0,6.844-2.505l-3.342-2.595a6.239,6.239,0,0,1-9.288-3.276h-3.455V292.5a10.337,10.337,0,0,0,9.241,5.7Zm0,0" transform="translate(-100.483 -289.822)" fill="none" clip-rule="evenodd"/>
    </clipPath>
    <clipPath id="clip-path-3">
      <path id="Tracé_80" data-name="Tracé 80" d="M86.1,182.666a6.113,6.113,0,0,1,0-3.93v-2.679H82.649a10.354,10.354,0,0,0,0,9.288l3.455-2.679Zm0,0" transform="translate(-81.549 -176.057)" fill="none" clip-rule="evenodd"/>
    </clipPath>
    <clipPath id="clip-path-4">
      <path id="Tracé_81" data-name="Tracé 81" d="M109.724,82.1a5.587,5.587,0,0,1,3.953,1.547l2.966-2.966a9.938,9.938,0,0,0-6.919-2.693,10.337,10.337,0,0,0-9.241,5.7l3.455,2.679a6.163,6.163,0,0,1,5.786-4.263Zm0,0" transform="translate(-100.483 -77.989)" fill="none" clip-rule="evenodd"/>
    </clipPath>
  </defs>
  <g id="Groupe_37" data-name="Groupe 37" transform="translate(0 0)">
    <g id="Groupe_38" data-name="Groupe 38" transform="translate(10.341 8.461)">
      <g id="Groupe_37-2" data-name="Groupe 37" transform="translate(0 0)" clip-path="url(#clip-path)">
        <rect id="Rectangle_315" data-name="Rectangle 315" width="21.418" height="21.206" transform="translate(-5.745 -5.745)" fill="#3e82f1"/>
      </g>
    </g>
    <g id="Groupe_40" data-name="Groupe 40" transform="translate(1.1 12.306)">
      <g id="Groupe_39" data-name="Groupe 39" transform="translate(0 0)" clip-path="url(#clip-path-2)">
        <rect id="Rectangle_316" data-name="Rectangle 316" width="27.575" height="19.867" transform="translate(-5.745 -5.745)" fill="#32a753"/>
      </g>
    </g>
    <g id="Groupe_42" data-name="Groupe 42" transform="translate(0 5.697)">
      <g id="Groupe_41" data-name="Groupe 41" transform="translate(0 0)" clip-path="url(#clip-path-3)">
        <rect id="Rectangle_317" data-name="Rectangle 317" width="16.045" height="20.779" transform="translate(-5.745 -5.745)" fill="#f9bb00"/>
      </g>
    </g>
    <g id="Groupe_44" data-name="Groupe 44" transform="translate(1.1)">
      <g id="Groupe_43" data-name="Groupe 43" transform="translate(0)" clip-path="url(#clip-path-4)">
        <rect id="Rectangle_318" data-name="Rectangle 318" width="27.651" height="19.867" transform="translate(-5.745 -5.745)" fill="#e74133"/>
      </g>
    </g>
  </g>
</svg>
